<svg width="20" height="21" viewBox="0 0 20 21" fill="none" xmlns="http://www.w3.org/2000/svg">
<path d="M18.917 5.21062L18.9112 5.18753C18.4444 3.30039 16.3398 1.27538 14.4072 0.854091L14.3854 0.849602C11.2594 0.253258 8.08977 0.253258 4.96441 0.849602L4.94197 0.854091C3.00994 1.27538 0.905418 3.30039 0.437961 5.18753L0.432831 5.21062C-0.144277 7.84607 -0.144277 10.5187 0.432831 13.1542L0.437961 13.1773C0.885476 14.9839 2.83328 16.9158 4.69381 17.4472V19.5537C4.69381 20.3162 5.62296 20.6906 6.15133 20.1405L8.28567 17.9219C8.74857 17.9478 9.21173 17.9622 9.6749 17.9622C11.2485 17.9622 12.8227 17.8134 14.3854 17.5153L14.4072 17.5108C16.3398 17.0895 18.4444 15.0645 18.9112 13.1773L18.917 13.1543C19.4941 10.5187 19.4941 7.84607 18.917 5.21062ZM17.228 12.772C16.9163 14.0032 15.3184 15.5338 14.0487 15.8166C12.3866 16.1326 10.7113 16.2677 9.0377 16.2214C9.00442 16.2205 8.97243 16.2334 8.94921 16.2572C8.7117 16.501 7.39083 17.857 7.39083 17.857L5.73325 19.5582C5.61205 19.6845 5.39917 19.5986 5.39917 19.4241V15.9344C5.39917 15.8768 5.358 15.8278 5.30138 15.8167C5.30106 15.8166 5.30074 15.8166 5.30042 15.8165C4.03078 15.5337 2.43347 14.0031 2.12119 12.7719C1.6018 10.3898 1.6018 7.9749 2.12119 5.59272C2.43347 4.36156 4.03078 2.83094 5.30042 2.54816C8.20327 1.99606 11.1465 1.99606 14.0487 2.54816C15.319 2.83094 16.9163 4.36156 17.228 5.59272C17.7479 7.97496 17.7479 10.3898 17.228 12.772Z" fill="white"/>
<path d="M12.4367 14.3825C12.2415 14.3233 12.0555 14.2834 11.8827 14.2118C10.0927 13.4691 8.44521 12.511 7.14024 11.0422C6.39815 10.207 5.81732 9.26408 5.32633 8.2662C5.0935 7.79297 4.89728 7.30121 4.69728 6.81266C4.51491 6.36713 4.78353 5.90685 5.06637 5.57117C5.33178 5.25613 5.6733 5.01503 6.04316 4.83734C6.33184 4.69865 6.61661 4.77861 6.82745 5.0233C7.28324 5.55232 7.7019 6.10839 8.04092 6.7216C8.24938 7.09877 8.19218 7.55982 7.81437 7.8165C7.72254 7.8789 7.63886 7.95212 7.55332 8.0226C7.4783 8.08435 7.4077 8.14674 7.35627 8.23035C7.26227 8.38335 7.25778 8.56379 7.31831 8.73013C7.78423 10.0105 8.56955 11.0062 9.85829 11.5424C10.0645 11.6282 10.2716 11.7281 10.5092 11.7004C10.9071 11.654 11.0359 11.2175 11.3147 10.9895C11.5872 10.7667 11.9355 10.7637 12.2291 10.9495C12.5227 11.1353 12.8073 11.3348 13.0902 11.5364C13.3679 11.7343 13.6444 11.9279 13.9006 12.1535C14.1469 12.3704 14.2317 12.655 14.093 12.9494C13.8391 13.4885 13.4696 13.9371 12.9367 14.2234C12.7862 14.3041 12.6064 14.3303 12.4367 14.3825C12.2415 14.3232 12.6064 14.3303 12.4367 14.3825Z" fill="white"/>
<path d="M9.67995 4.2207C12.0214 4.2863 13.9445 5.84019 14.3566 8.15504C14.4269 8.54946 14.4519 8.95273 14.4831 9.35305C14.4962 9.52144 14.4009 9.68142 14.2192 9.6836C14.0315 9.68585 13.947 9.52881 13.9348 9.36049C13.9107 9.02731 13.894 8.69265 13.8481 8.36222C13.6057 6.61801 12.2149 5.17498 10.4787 4.86533C10.2175 4.81871 9.9501 4.80647 9.68546 4.7787C9.51817 4.76113 9.29906 4.751 9.26199 4.54305C9.23089 4.3687 9.37806 4.22987 9.54407 4.22096C9.58921 4.21846 9.63461 4.22051 9.67995 4.2207C12.0214 4.2863 9.63461 4.22051 9.67995 4.2207Z" fill="white"/>
<path d="M13.2379 8.83401C13.234 8.86325 13.232 8.93199 13.2149 8.99676C13.1527 9.23183 12.7963 9.26127 12.7143 9.02401C12.69 8.9536 12.6863 8.87351 12.6862 8.79772C12.6853 8.30179 12.5776 7.80638 12.3275 7.37489C12.0704 6.93142 11.6776 6.5586 11.217 6.33302C10.9384 6.19663 10.6372 6.11186 10.3319 6.06133C10.1985 6.03927 10.0636 6.02587 9.92952 6.00721C9.76704 5.98464 9.68028 5.88108 9.68797 5.72096C9.69515 5.57092 9.8048 5.463 9.96832 5.47223C10.5057 5.50275 11.0247 5.61888 11.5024 5.87185C12.4739 6.38631 13.0288 7.19836 13.1908 8.28268C13.1981 8.3318 13.2099 8.38047 13.2136 8.42978C13.2228 8.55155 13.2285 8.67345 13.2379 8.83401C13.234 8.86325 13.2285 8.67345 13.2379 8.83401Z" fill="white"/>
<path d="M11.7813 8.77683C11.5854 8.78035 11.4806 8.67192 11.4604 8.49231C11.4463 8.36708 11.4352 8.24018 11.4053 8.11835C11.3465 7.8784 11.2189 7.65602 11.0171 7.50899C10.9218 7.43954 10.8138 7.38895 10.7007 7.35631C10.557 7.31482 10.4078 7.32623 10.2644 7.29109C10.1087 7.25294 10.0226 7.12688 10.0471 6.9808C10.0693 6.84788 10.1987 6.74412 10.3439 6.75464C11.2517 6.82017 11.9005 7.28949 11.9931 8.35817C11.9996 8.43358 12.0073 8.51328 11.9906 8.58542C11.9619 8.70892 11.8705 8.7708 11.7813 8.77683C11.5854 8.78035 11.8705 8.7708 11.7813 8.77683Z" fill="white"/>
</svg>
