<svg width="8" height="17" viewBox="0 0 8 17" fill="none" xmlns="http://www.w3.org/2000/svg">
<path d="M0.24823 8.76816H1.92603V15.7526C1.92603 15.8916 2.03668 16.0034 2.17426 16.0034H5.02143C5.159 16.0034 5.26966 15.8916 5.26966 15.7526V8.8014H7.19868C7.32429 8.8014 7.42897 8.70771 7.44392 8.58077L7.73701 6.00883C7.74598 5.93932 7.72206 5.86679 7.6772 5.81541C7.62934 5.76101 7.56355 5.73079 7.49177 5.73079H5.26966V4.11992C5.26966 3.63334 5.52985 3.38854 6.03828 3.38854C6.11005 3.38854 7.49177 3.38854 7.49177 3.38854C7.62934 3.38854 7.74 3.27671 7.74 3.13769V0.777307C7.74 0.638283 7.62934 0.52646 7.49177 0.52646H5.48798C5.47303 0.52646 5.44312 0.523437 5.39527 0.523437C5.04835 0.523437 3.84009 0.592949 2.88605 1.47847C1.82733 2.46675 1.97388 3.64241 2.00977 3.8449V5.73079H0.24823C0.110657 5.73079 0 5.84261 0 5.98163V8.52033C0 8.65633 0.110657 8.76816 0.24823 8.76816Z" fill="#385C8E"/>
<path d="M0.24823 8.76816H1.92603V15.7526C1.92603 15.8916 2.03668 16.0034 2.17426 16.0034H5.02143C5.159 16.0034 5.26966 15.8916 5.26966 15.7526V8.8014H7.19868C7.32429 8.8014 7.42897 8.70771 7.44392 8.58077L7.73701 6.00883C7.74598 5.93932 7.72206 5.86679 7.6772 5.81541C7.62934 5.76101 7.56355 5.73079 7.49177 5.73079H5.26966V4.11992C5.26966 3.63334 5.52985 3.38854 6.03828 3.38854C6.11005 3.38854 7.49177 3.38854 7.49177 3.38854C7.62934 3.38854 7.74 3.27671 7.74 3.13769V0.777307C7.74 0.638283 7.62934 0.52646 7.49177 0.52646H5.48798C5.47303 0.52646 5.44312 0.523437 5.39527 0.523437C5.04835 0.523437 3.84009 0.592949 2.88605 1.47847C1.82733 2.46675 1.97388 3.64241 2.00977 3.8449V5.73079H0.24823C0.110657 5.73079 0 5.84261 0 5.98163V8.52033C0 8.65633 0.110657 8.76816 0.24823 8.76816Z" fill="white"/>
</svg>
