<svg width="18" height="19" viewBox="0 0 18 19" fill="none" xmlns="http://www.w3.org/2000/svg">
<path d="M12.375 0.402344H5.625C2.51888 0.402344 0 2.92122 0 6.02734V12.7773C0 15.8835 2.51888 18.4023 5.625 18.4023H12.375C15.4811 18.4023 18 15.8835 18 12.7773V6.02734C18 2.92122 15.4811 0.402344 12.375 0.402344ZM16.3125 12.7773C16.3125 14.9486 14.5463 16.7148 12.375 16.7148H5.625C3.45375 16.7148 1.6875 14.9486 1.6875 12.7773V6.02734C1.6875 3.85609 3.45375 2.08984 5.625 2.08984H12.375C14.5463 2.08984 16.3125 3.85609 16.3125 6.02734V12.7773Z" fill="white"/>
<path d="M9 4.90234C6.51487 4.90234 4.5 6.91722 4.5 9.40234C4.5 11.8875 6.51487 13.9023 9 13.9023C11.4851 13.9023 13.5 11.8875 13.5 9.40234C13.5 6.91722 11.4851 4.90234 9 4.90234ZM9 12.2148C7.44975 12.2148 6.1875 10.9526 6.1875 9.40234C6.1875 7.85097 7.44975 6.58984 9 6.58984C10.5503 6.58984 11.8125 7.85097 11.8125 9.40234C11.8125 10.9526 10.5503 12.2148 9 12.2148Z" fill="white"/>
<path d="M13.8379 5.16458C14.1691 5.16458 14.4375 4.89612 14.4375 4.56496C14.4375 4.23379 14.1691 3.96533 13.8379 3.96533C13.5067 3.96533 13.2383 4.23379 13.2383 4.56496C13.2383 4.89612 13.5067 5.16458 13.8379 5.16458Z" fill="white"/>
</svg>
