<svg width="17" height="15" viewBox="0 0 17 15" fill="none" xmlns="http://www.w3.org/2000/svg">
<path d="M15.909 0.457983L0.361122 6.48763C-0.142476 6.68295 -0.111968 7.40213 0.406426 7.55445L4.35731 8.71551L5.83178 13.3716C5.9858 13.858 6.60511 14.0054 6.96361 13.6411L9.00632 11.5654L13.0143 14.4932C13.5048 14.8515 14.2033 14.5853 14.3278 13.9927L16.9824 1.36259C17.1124 0.743932 16.5007 0.228493 15.909 0.457983ZM13.9597 3.26091L6.7378 9.61646C6.66582 9.67982 6.62 9.7675 6.60929 9.86255L6.33124 12.3224C6.32216 12.4026 6.20936 12.4132 6.18528 12.3361L5.0413 8.66768C4.98891 8.49973 5.05722 8.31776 5.20737 8.2251L13.7357 2.96125C13.9318 2.84011 14.1326 3.10879 13.9597 3.26091Z" fill="white"/>
</svg>
