<svg width="19" height="11" viewBox="0 0 19 11" fill="none" xmlns="http://www.w3.org/2000/svg">
<path d="M15.5403 6.66495C16.1399 7.25626 16.7713 7.81196 17.3074 8.46026C17.5437 8.7488 17.7695 9.04801 17.9423 9.38285C18.1857 9.86018 17.967 10.3838 17.5437 10.4123H14.9125C14.2353 10.4693 13.6921 10.195 13.2371 9.72482C12.8739 9.35079 12.5353 8.95184 12.1861 8.56356C12.0415 8.40683 11.8933 8.25722 11.7134 8.13967C11.3537 7.90457 11.0433 7.97581 10.8387 8.3534C10.6306 8.73811 10.5812 9.16556 10.5601 9.59302C10.5319 10.22 10.3449 10.3838 9.72063 10.4123C8.39091 10.4764 7.12821 10.2734 5.95722 9.59658C4.92378 8.99814 4.12313 8.15748 3.42476 7.20283C2.06683 5.3434 1.02633 3.29874 0.0916537 1.20065C-0.119972 0.726888 0.0352202 0.473977 0.553704 0.46329C1.41079 0.44548 2.2714 0.449042 3.12848 0.46329C3.47767 0.466852 3.70693 0.669894 3.84449 1.00473C4.31006 2.15886 4.87793 3.256 5.5904 4.2712C5.78086 4.54192 5.97485 4.81265 6.24997 5.00144C6.5533 5.2116 6.78609 5.14392 6.9307 4.7984C7.0224 4.58111 7.0612 4.34601 7.08236 4.11447C7.14938 3.31299 7.15996 2.51151 7.04004 1.7136C6.96597 1.2149 6.68733 0.890745 6.19706 0.79813C5.94664 0.74826 5.98191 0.655645 6.10536 0.509598C6.31698 0.260249 6.5145 0.103516 6.91306 0.103516H9.8864C10.3555 0.196131 10.4578 0.409858 10.5213 0.883621L10.5248 4.21777C10.5213 4.403 10.6165 4.94801 10.9445 5.06912C11.2091 5.15461 11.3819 4.94445 11.5371 4.77346C12.2496 4.01117 12.7575 3.10995 13.2125 2.17311C13.4135 1.76347 13.5863 1.33601 13.7556 0.908556C13.8791 0.591527 14.0766 0.438355 14.4293 0.44548L17.2827 0.456166C17.3674 0.456166 17.452 0.456166 17.5367 0.470415C18.0199 0.552343 18.1504 0.762509 18.0023 1.23983C17.7659 1.98432 17.3109 2.60769 16.863 3.23106C16.3868 3.89718 15.8754 4.54192 15.4028 5.2116C14.969 5.82429 15.0007 6.13419 15.5403 6.66495Z" fill="#436EAB"/>
<path d="M15.5403 6.66495C16.1399 7.25626 16.7713 7.81196 17.3074 8.46026C17.5437 8.7488 17.7695 9.04801 17.9423 9.38285C18.1857 9.86018 17.967 10.3838 17.5437 10.4123H14.9125C14.2353 10.4693 13.6921 10.195 13.2371 9.72482C12.8739 9.35079 12.5353 8.95184 12.1861 8.56356C12.0415 8.40683 11.8933 8.25722 11.7134 8.13967C11.3537 7.90457 11.0433 7.97581 10.8387 8.3534C10.6306 8.73811 10.5812 9.16556 10.5601 9.59302C10.5319 10.22 10.3449 10.3838 9.72063 10.4123C8.39091 10.4764 7.12821 10.2734 5.95722 9.59658C4.92378 8.99814 4.12313 8.15748 3.42476 7.20283C2.06683 5.3434 1.02633 3.29874 0.0916537 1.20065C-0.119972 0.726888 0.0352202 0.473977 0.553704 0.46329C1.41079 0.44548 2.2714 0.449042 3.12848 0.46329C3.47767 0.466852 3.70693 0.669894 3.84449 1.00473C4.31006 2.15886 4.87793 3.256 5.5904 4.2712C5.78086 4.54192 5.97485 4.81265 6.24997 5.00144C6.5533 5.2116 6.78609 5.14392 6.9307 4.7984C7.0224 4.58111 7.0612 4.34601 7.08236 4.11447C7.14938 3.31299 7.15996 2.51151 7.04004 1.7136C6.96597 1.2149 6.68733 0.890745 6.19706 0.79813C5.94664 0.74826 5.98191 0.655645 6.10536 0.509598C6.31698 0.260249 6.5145 0.103516 6.91306 0.103516H9.8864C10.3555 0.196131 10.4578 0.409858 10.5213 0.883621L10.5248 4.21777C10.5213 4.403 10.6165 4.94801 10.9445 5.06912C11.2091 5.15461 11.3819 4.94445 11.5371 4.77346C12.2496 4.01117 12.7575 3.10995 13.2125 2.17311C13.4135 1.76347 13.5863 1.33601 13.7556 0.908556C13.8791 0.591527 14.0766 0.438355 14.4293 0.44548L17.2827 0.456166C17.3674 0.456166 17.452 0.456166 17.5367 0.470415C18.0199 0.552343 18.1504 0.762509 18.0023 1.23983C17.7659 1.98432 17.3109 2.60769 16.863 3.23106C16.3868 3.89718 15.8754 4.54192 15.4028 5.2116C14.969 5.82429 15.0007 6.13419 15.5403 6.66495Z" fill="white"/>
</svg>
