<svg width="18" height="19" viewBox="0 0 18 19" fill="none" xmlns="http://www.w3.org/2000/svg">
<path d="M8.4908 0.774081C3.73702 1.00043 -0.0143797 4.95941 4.14387e-05 9.71857C0.00443236 11.1681 0.354372 12.5363 0.971684 13.7451L0.0238902 18.3458C-0.0273803 18.5947 0.197073 18.8126 0.4443 18.7541L4.95245 17.686C6.11066 18.2629 7.41158 18.5962 8.78839 18.6172C13.6472 18.6914 17.6986 14.8334 17.8501 9.97634C18.0124 4.76995 13.7154 0.525262 8.4908 0.774081ZM13.87 14.6337C12.5497 15.9539 10.7944 16.681 8.92727 16.681C7.83401 16.681 6.78734 16.4357 5.81621 15.952L5.18839 15.6393L2.42443 16.2941L3.00623 13.4698L2.69693 12.8642C2.19279 11.8768 1.93717 10.8092 1.93717 9.69093C1.93717 7.8238 2.66426 6.06846 3.9845 4.74817C5.29296 3.43972 7.07696 2.70079 8.92739 2.70079C10.7945 2.70084 12.5498 3.42792 13.87 4.74813C15.1903 6.06838 15.9174 7.82371 15.9174 9.6908C15.9174 11.5413 15.1784 13.3253 13.87 14.6337Z" fill="#7AD06D"/>
<path d="M8.4908 0.774081C3.73702 1.00043 -0.0143797 4.95941 4.14387e-05 9.71857C0.00443236 11.1681 0.354372 12.5363 0.971684 13.7451L0.0238902 18.3458C-0.0273803 18.5947 0.197073 18.8126 0.4443 18.7541L4.95245 17.686C6.11066 18.2629 7.41158 18.5962 8.78839 18.6172C13.6472 18.6914 17.6986 14.8334 17.8501 9.97634C18.0124 4.76995 13.7154 0.525262 8.4908 0.774081ZM13.87 14.6337C12.5497 15.9539 10.7944 16.681 8.92727 16.681C7.83401 16.681 6.78734 16.4357 5.81621 15.952L5.18839 15.6393L2.42443 16.2941L3.00623 13.4698L2.69693 12.8642C2.19279 11.8768 1.93717 10.8092 1.93717 9.69093C1.93717 7.8238 2.66426 6.06846 3.9845 4.74817C5.29296 3.43972 7.07696 2.70079 8.92739 2.70079C10.7945 2.70084 12.5498 3.42792 13.87 4.74813C15.1903 6.06838 15.9174 7.82371 15.9174 9.6908C15.9174 11.5413 15.1784 13.3253 13.87 14.6337Z" fill="white"/>
<path d="M13.2603 11.6269L11.531 11.1303C11.3037 11.0651 11.0589 11.1296 10.8932 11.2983L10.4704 11.7292C10.2921 11.9108 10.0215 11.9692 9.78552 11.8737C8.96752 11.5427 7.24679 10.0128 6.80736 9.24749C6.68058 9.02673 6.70154 8.75075 6.85721 8.54933L7.22639 8.07171C7.37103 7.88458 7.40155 7.63326 7.3059 7.41694L6.57838 5.77151C6.40412 5.3774 5.9005 5.26268 5.57148 5.54094C5.08887 5.94913 4.51624 6.56941 4.44663 7.25659C4.3239 8.46814 4.84349 9.99541 6.80835 11.8293C9.07828 13.9479 10.896 14.2278 12.0796 13.9411C12.7509 13.7785 13.2873 13.1267 13.6259 12.5929C13.8567 12.2291 13.6745 11.7458 13.2603 11.6269Z" fill="#7AD06D"/>
<path d="M13.2603 11.6269L11.531 11.1303C11.3037 11.0651 11.0589 11.1296 10.8932 11.2983L10.4704 11.7292C10.2921 11.9108 10.0215 11.9692 9.78552 11.8737C8.96752 11.5427 7.24679 10.0128 6.80736 9.24749C6.68058 9.02673 6.70154 8.75075 6.85721 8.54933L7.22639 8.07171C7.37103 7.88458 7.40155 7.63326 7.3059 7.41694L6.57838 5.77151C6.40412 5.3774 5.9005 5.26268 5.57148 5.54094C5.08887 5.94913 4.51624 6.56941 4.44663 7.25659C4.3239 8.46814 4.84349 9.99541 6.80835 11.8293C9.07828 13.9479 10.896 14.2278 12.0796 13.9411C12.7509 13.7785 13.2873 13.1267 13.6259 12.5929C13.8567 12.2291 13.6745 11.7458 13.2603 11.6269Z" fill="white"/>
</svg>
